<svg width="16" height="16" viewBox="0 0 16 16" fill="none" xmlns="http://www.w3.org/2000/svg">
<g id="Book 1">
<path id="Vector" opacity="0.4" d="M7.05833 13.7674C7.34899 13.9368 7.67566 14.0214 8.00099 14.0214C8.32633 14.0214 8.65166 13.9368 8.94099 13.7688C9.78499 13.2841 11.0997 12.6848 12.5723 12.5788C13.5603 12.5141 14.3337 11.7001 14.3337 10.7261V3.83274C14.3337 3.30807 14.1097 2.80607 13.7183 2.45607C13.321 2.10007 12.7883 1.93007 12.2557 1.98874C10.733 2.1534 9.43099 2.75874 8.60699 3.23874C8.23366 3.45607 7.76833 3.45674 7.39366 3.23807C6.56966 2.75874 5.26833 2.1534 3.74633 1.98874C3.21433 1.9274 2.67966 2.10007 2.28299 2.45607C1.89166 2.80607 1.66699 3.30807 1.66699 3.83274V10.7261C1.66699 11.6994 2.44033 12.5134 3.42766 12.5788C4.90166 12.6848 6.21699 13.2841 7.05833 13.7674Z" fill="#2675EB"/>
<path id="Vector_2" d="M8.5 3.29324V13.9532C8.3368 13.9982 8.1686 14.0209 8.0004 14.0209C7.83227 14.0209 7.66373 13.9983 7.5 13.953V3.29297C7.8174 3.43769 8.18353 3.4373 8.5 3.29324Z" fill="#2675EB"/>
<path id="Vector_3" d="M5.74394 7.22032C5.9426 7.22032 6.1306 7.10099 6.2086 6.90499C6.3106 6.64899 6.18527 6.35765 5.9286 6.25565L4.47194 5.67565C4.21594 5.57499 3.9246 5.69832 3.8226 5.95565C3.7206 6.21165 3.84594 6.50299 4.1026 6.60499L5.55927 7.18499C5.61927 7.20899 5.68194 7.22032 5.74394 7.22032Z" fill="#2675EB"/>
<path id="Vector_4" d="M5.74394 10.2208C5.9426 10.2208 6.1306 10.1015 6.2086 9.90545C6.3106 9.64945 6.18527 9.35812 5.9286 9.25612L4.47194 8.67612C4.21594 8.57412 3.9246 8.69945 3.8226 8.95612C3.7206 9.21212 3.84594 9.50345 4.1026 9.60545L5.55927 10.1855C5.61927 10.2095 5.68194 10.2208 5.74394 10.2208Z" fill="#2675EB"/>
<path id="Vector_5" d="M10.257 7.22032C10.0583 7.22032 9.87033 7.10099 9.79233 6.90499C9.69033 6.64899 9.81566 6.35765 10.0723 6.25565L11.529 5.67565C11.785 5.57499 12.0763 5.69832 12.1783 5.95565C12.2803 6.21165 12.155 6.50299 11.8983 6.60499L10.4417 7.18499C10.3817 7.20899 10.319 7.22032 10.257 7.22032Z" fill="#2675EB"/>
<path id="Vector_6" d="M10.257 10.2208C10.0583 10.2208 9.87033 10.1015 9.79233 9.90545C9.69033 9.64945 9.81566 9.35812 10.0723 9.25612L11.529 8.67612C11.785 8.57412 12.0763 8.69945 12.1783 8.95612C12.2803 9.21212 12.155 9.50345 11.8983 9.60545L10.4417 10.1855C10.3817 10.2095 10.319 10.2208 10.257 10.2208Z" fill="#2675EB"/>
</g>
</svg>
