<svg width="120" height="120" viewBox="0 0 120 120" fill="none" xmlns="http://www.w3.org/2000/svg">
<path opacity="0.4" fill-rule="evenodd" clip-rule="evenodd" d="M106.794 67.61C109.144 70.81 110.244 75.4605 109.344 79.81C108.544 83.6105 104.944 92.26 89.1935 94.31V99.51C89.1935 101.76 87.3435 103.66 85.0435 103.66H76.5935C75.0935 103.66 73.3435 102.46 72.7935 101.06L67.9435 89.61C64.4435 89.81 60.3935 88.56 57.4935 85.61C53.2935 87.86 48.0934 88.26 43.4934 86.41C42.2934 85.91 41.1434 85.31 40.1934 84.51C39.6934 84.16 39.1934 83.76 38.8434 83.31C38.7434 83.26 38.6934 83.26 38.7434 83.21C37.8934 82.41 37.1934 81.51 36.6434 80.51C36.2934 79.96 35.9934 79.36 35.7434 78.76C35.5934 78.8105 35.4434 78.86 35.2934 78.86C33.5434 79.36 31.6434 79.61 29.7434 79.61C25.8934 79.61 21.9434 78.6605 18.6934 76.7105C17.9934 76.3105 17.3434 75.81 16.7434 75.36C12.9434 72.36 10.2934 68.21 9.24343 63.41C7.94343 57.36 9.24343 51.01 12.8934 45.5102C12.9934 45.3602 13.1434 45.2602 13.2934 45.1602C13.2434 38.7602 16.4434 32.1102 21.7934 28.0602C25.2934 25.4102 29.3934 24.1602 33.6934 24.1102C40.0934 20.3102 52.9435 12.9602 69.3935 18.1102C71.9935 17.0102 74.7935 16.5602 77.6435 16.8102C84.0435 17.3602 89.7435 21.3102 92.2435 26.8602C92.4435 27.3602 92.4935 27.8602 92.6935 28.3602C98.0435 30.4602 102.244 34.8102 104.694 41.3102C109.094 45.9102 111.344 51.01 111.244 56.06C111.194 60.11 109.694 63.96 106.794 67.61Z" fill="#2675EB"/>
<path fill-rule="evenodd" clip-rule="evenodd" d="M56.82 52.9105C57.79 52.9105 58.8 52.7905 59.84 52.5305C61.85 52.0205 63.065 49.9853 62.56 47.9753C62.055 45.9603 59.985 44.7553 58.005 45.2553C55.82 45.8353 54.27 44.6803 53.32 43.5753C54.87 41.3303 55.715 38.4753 55.715 35.1953C55.715 33.1253 54.035 31.4453 51.965 31.4453C49.8949 31.4453 48.2149 33.1253 48.2149 35.1953C48.2149 38.2203 47.1849 40.0953 45.0599 40.9053C42.7549 41.7903 40.2349 41.0553 39.6949 40.4953C38.5999 38.7703 36.3249 38.2153 34.5699 39.2953C32.7999 40.3753 32.2399 42.6803 33.3249 44.4503C34.9949 47.1853 38.7299 48.8203 42.7149 48.8203C43.9999 48.8203 45.3149 48.6453 46.5899 48.2903C46.8199 48.2253 47.0249 48.1253 47.2449 48.0503C49.4499 50.8105 52.795 52.9105 56.82 52.9105Z" fill="#2675EB"/>
<path fill-rule="evenodd" clip-rule="evenodd" d="M96.8633 51.348C96.4233 49.3282 94.4333 48.0732 92.3983 48.4782L85.9283 49.8782C83.9082 50.318 82.6233 52.313 83.0583 54.343C83.4383 56.093 84.9983 57.293 86.7233 57.293C86.9833 57.293 87.2533 57.268 87.5233 57.213L93.9933 55.813C96.0133 55.373 97.2983 53.373 96.8633 51.348Z" fill="#2675EB"/>
<path fill-rule="evenodd" clip-rule="evenodd" d="M78.6286 60.15C81.0986 52.205 78.0686 45.8649 74.3136 42.6099C72.7536 41.2649 70.3836 41.4249 69.0186 42.9899C67.6686 44.5549 67.8386 46.9249 69.4036 48.2849C70.4186 49.1549 73.2236 52.205 71.5136 57.79C65.0786 57.02 58.6186 59.37 55.7686 63.83C54.6486 65.575 55.1636 67.89 56.9086 69.005C58.6686 70.125 60.9736 69.605 62.0886 67.87C63.3886 65.82 67.9286 64.38 72.3586 65.575C75.4736 66.41 79.2386 68.725 79.5136 75.005C79.5986 77.02 81.2586 78.595 83.2536 78.595C83.3136 78.595 83.3686 78.595 83.4186 78.59C85.4886 78.505 87.0936 76.755 87.0036 74.685C86.7236 68.19 83.6536 63.04 78.6286 60.15Z" fill="#2675EB"/>
<path fill-rule="evenodd" clip-rule="evenodd" d="M40.193 84.5105C39.693 84.1605 39.193 83.7605 38.843 83.3105C38.843 83.2605 38.793 83.2605 38.793 83.2105H38.743C37.893 82.4105 37.193 81.5105 36.643 80.5105C36.293 79.9605 35.993 79.3605 35.743 78.7605C35.593 78.8105 35.443 78.8605 35.293 78.8605C39.243 75.8605 41.093 71.0105 40.793 67.9605C40.593 65.8605 42.093 64.0605 44.143 63.8605C46.193 63.5605 48.043 65.1605 48.243 67.2105C48.893 73.2605 45.543 80.2605 40.193 84.5105Z" fill="#2675EB"/>
</svg>
