<svg width="24" height="24" viewBox="0 0 24 24" fill="none" xmlns="http://www.w3.org/2000/svg">
<path opacity="0.4" fill-rule="evenodd" clip-rule="evenodd" d="M21 20.0959H20.68V10.3759C20.68 9.31383 19.8642 8.58873 18.8892 8.46476C18.7249 8.44385 18.59 8.58017 18.59 8.74586V20.0959H17.56V5.42586C17.56 4.64586 17.19 3.94586 16.61 3.50586C16.57 3.47586 16.53 3.44586 16.49 3.41586C16.24 3.22586 15.94 3.09586 15.62 3.05586C15.58 3.04586 15.53 3.03586 15.49 3.03586C15.43 3.02586 15.37 3.01586 15.31 3.02586C15.25 3.00586 15.19 3.00586 15.13 3.00586H8.87C8.74 3.00586 8.62 3.01586 8.5 3.03586C8.46 3.03586 8.42 3.04586 8.38 3.05586C8.06 3.10586 7.76 3.22586 7.51 3.41586C7.47 3.44586 7.43 3.47586 7.39 3.50586C6.81 3.94586 6.44 4.64586 6.44 5.42586V20.0959H5.41V8.74586C5.41 8.58017 5.27512 8.44385 5.11075 8.46476C4.1358 8.58873 3.32 9.31383 3.32 10.3759V20.0959H3C2.59 20.0959 2.25 20.4359 2.25 20.8459C2.25 21.2659 2.59 21.5959 3 21.5959H21C21.41 21.5959 21.75 21.2659 21.75 20.8459C21.75 20.4359 21.41 20.0959 21 20.0959Z" fill="#2675EB"/>
<path d="M10.3296 7.39508C10.3796 7.39508 10.4296 7.39508 10.4796 7.38507C10.8796 7.30508 11.1396 6.90507 11.0596 6.50507V6.49507C10.9796 6.08507 10.5896 5.82507 10.1796 5.90507C9.76964 5.98507 9.50964 6.38507 9.58964 6.79507C9.65965 7.15507 9.97964 7.39508 10.3296 7.39508Z" fill="#2675EB"/>
<path d="M14.24 20.0956L20.962 20.0954C21.382 20.0954 21.712 20.4354 21.712 20.8454C21.712 21.2654 21.382 21.5954 20.962 21.5954L3 21.5958C2.59 21.5958 2.25 21.2658 2.25 20.8458C2.25 20.4358 2.59 20.0958 3 20.0958L9.76 20.0957V17.4457C9.76 16.9857 10.15 16.5957 10.61 16.5957H13.39C13.86 16.5957 14.24 16.9857 14.24 17.4457V20.0956Z" fill="#2675EB"/>
<path d="M11.0596 13.1552V13.1652C11.1396 13.5652 10.8796 13.9652 10.4796 14.0452C10.4296 14.0552 10.3796 14.0552 10.3296 14.0552C9.97964 14.0552 9.65965 13.8152 9.58964 13.4552C9.50964 13.0452 9.76964 12.6452 10.1796 12.5652C10.5896 12.4852 10.9796 12.7452 11.0596 13.1552Z" fill="#2675EB"/>
<path d="M10.3302 10.756C10.3702 10.756 10.4202 10.756 10.4702 10.746C10.8702 10.666 11.1402 10.276 11.0602 9.866V9.856C10.9802 9.45601 10.6002 9.18601 10.1902 9.26601C9.78022 9.34601 9.51022 9.74601 9.59022 10.146C9.66022 10.506 9.97022 10.756 10.3302 10.756Z" fill="#2675EB"/>
<path d="M13.8202 7.38507C13.7702 7.39508 13.7202 7.39508 13.6702 7.39508C13.3202 7.39508 13.0102 7.15507 12.9402 6.79507C12.8602 6.38507 13.1202 5.98507 13.5302 5.90507C13.9302 5.82507 14.3302 6.08507 14.4102 6.49507V6.50507C14.4902 6.90507 14.2302 7.30508 13.8202 7.38507Z" fill="#2675EB"/>
<path d="M14.4102 13.1652V13.1552C14.3302 12.7452 13.9302 12.4852 13.5302 12.5652C13.1202 12.6452 12.8602 13.0452 12.9402 13.4552C13.0102 13.8152 13.3202 14.0552 13.6702 14.0552C13.7202 14.0552 13.7702 14.0552 13.8202 14.0452C14.2302 13.9652 14.4902 13.5652 14.4102 13.1652Z" fill="#2675EB"/>
<path d="M13.8198 10.746C13.7698 10.756 13.7198 10.756 13.6698 10.756C13.3198 10.756 13.0098 10.506 12.9398 10.146C12.8598 9.74601 13.1298 9.34601 13.5298 9.26601C13.9498 9.18601 14.3298 9.45601 14.4098 9.856V9.866C14.4898 10.276 14.2198 10.666 13.8198 10.746Z" fill="#2675EB"/>
</svg>
