<svg width="16" height="16" viewBox="0 0 16 16" fill="none" xmlns="http://www.w3.org/2000/svg">
<path fill-rule="evenodd" clip-rule="evenodd" d="M14.1648 10.5381C12.4061 8.40475 11.5294 8.59609 10.5654 9.06475C9.89811 9.38875 9.32211 9.67009 7.82478 8.17209C6.32744 6.67409 6.60811 6.09875 6.93211 5.43275C7.40211 4.46809 7.59278 3.58942 5.45744 1.83142C4.94878 1.41475 4.39411 1.25475 3.81678 1.36675C2.59478 1.59542 1.73144 2.95542 1.73278 2.95542C1.19144 3.71275 0.45011 5.99009 5.22811 10.7688C8.37078 13.9121 10.4314 14.6661 11.6821 14.6661C12.3334 14.6661 12.7641 14.4621 13.0134 14.2828C13.0274 14.2748 14.3994 13.4248 14.6308 12.1788C14.7388 11.5994 14.5821 11.0481 14.1648 10.5381Z" fill="#2675EB"/>
</svg>
