<svg width="16" height="16" viewBox="0 0 16 16" fill="none" xmlns="http://www.w3.org/2000/svg">
<path opacity="0.4" fill-rule="evenodd" clip-rule="evenodd" d="M12.7386 3.41296C11.5152 2.18962 9.8879 1.51562 8.15457 1.51562C6.4219 1.51562 4.79323 2.18962 3.5699 3.41362C2.34323 4.63962 1.66857 6.26962 1.6699 8.00229C1.6699 9.75962 2.59257 11.4343 2.92723 11.9836L1.36523 14.4743L1.9739 14.469C2.01257 14.469 5.84723 14.4356 8.0139 14.4823C8.06257 14.483 8.11057 14.4836 8.15857 14.4836C9.88923 14.4836 11.5106 13.8123 12.7386 12.5836C15.2666 10.055 15.2666 5.94162 12.7386 3.41296Z" fill="#2675EB"/>
<path d="M11.1599 8.75391H10.0946V7.75391H11.1599V8.75391Z" fill="#2675EB"/>
<path d="M8.67057 8.75391H7.60457V7.75391H8.67057V8.75391Z" fill="#2675EB"/>
<path d="M6.18123 8.75391H5.11523V7.75391H6.18123V8.75391Z" fill="#2675EB"/>
</svg>
