<svg width="120" height="120" viewBox="0 0 120 120" fill="none" xmlns="http://www.w3.org/2000/svg">
<path fill-rule="evenodd" clip-rule="evenodd" d="M87.117 72.9514C88.1135 72.4669 89.273 73.1924 89.273 74.3004V86.5534C89.273 91.8534 86.173 96.6035 81.323 98.6535C74.223 101.653 67.023 103.153 59.773 103.153C52.523 103.153 45.223 101.653 37.923 98.6535C33.073 96.6035 29.873 91.8034 29.873 86.4534V73.8574C29.873 72.7479 31.0359 72.0224 32.0324 72.5099L48.7731 80.7034C52.1195 82.7109 56.125 83.3534 59.973 83.3534C63.823 83.3534 67.623 82.4534 71.173 80.7034L87.117 72.9514Z" fill="#2675EB"/>
<path opacity="0.4" d="M101.175 59.1515C105.825 56.8515 108.725 52.2015 108.725 47.0016C108.725 41.8016 105.825 37.1016 101.125 34.8016L68.4245 18.8016C63.0745 16.2016 56.9245 16.2016 51.5245 18.8016L18.8744 34.8016C14.1744 37.1016 11.2744 41.7516 11.2744 46.9516C11.2744 51.3515 13.3244 55.3515 16.7744 57.8515L23.4744 61.3515L30.3244 64.7015C30.4744 64.8015 30.5744 64.9015 30.7244 64.9515L51.5245 75.1015C54.148 76.4135 57.0315 77.0515 59.9745 77.0515C62.8745 77.0515 65.7245 76.4015 68.4245 75.1015L101.175 59.1515Z" fill="#2675EB"/>
<path fill-rule="evenodd" clip-rule="evenodd" d="M23.4508 61.4165C24.1008 59.8665 25.5508 58.6665 27.3508 58.3665L46.1008 55.4165C48.1508 55.0665 49.5508 53.1665 49.2508 51.1165C48.9008 49.0662 46.9508 47.6662 44.9508 47.9662L26.2008 50.9165C21.9736 51.6125 18.5379 54.2875 16.7791 57.8585L16.7725 57.854C15.9725 59.554 15.5225 61.404 15.5225 63.354V83.754C15.5225 85.854 17.2225 87.504 19.2725 87.504C21.3225 87.504 23.0225 85.854 23.0225 83.754V63.354C23.0225 62.6765 23.1629 61.9995 23.4437 61.4125L23.4508 61.4165Z" fill="#2675EB"/>
</svg>
