<svg width="14" height="14" viewBox="0 0 14 14" fill="none" xmlns="http://www.w3.org/2000/svg">
<g id="Group 36994">
<path id="Fill 622" opacity="0.4" fill-rule="evenodd" clip-rule="evenodd" d="M7.00045 0.175781C1.96111 0.175781 0.175781 1.96111 0.175781 7.00045C0.175781 12.0398 1.96111 13.8251 7.00045 13.8251C12.0391 13.8251 13.8251 12.0398 13.8251 7.00045C13.8251 1.96111 12.0391 0.175781 7.00045 0.175781Z" fill="#2675EB"/>
<g id="Fill 674">
<path d="M9.98684 10.7784C10.2628 10.7784 10.4868 10.5544 10.4868 10.2784V8.17369C10.4868 7.89769 10.2628 7.67369 9.98684 7.67369C9.71084 7.67369 9.48684 7.89769 9.48684 8.17369V10.2784C9.48684 10.5544 9.71084 10.7784 9.98684 10.7784Z" fill="#2675EB"/>
<path d="M7.00084 10.7784C7.27684 10.7784 7.50084 10.5544 7.50084 10.2784V3.67969C7.50084 3.40302 7.27684 3.17969 7.00084 3.17969C6.72484 3.17969 6.50084 3.40302 6.50084 3.67969V10.2784C6.50084 10.5544 6.72484 10.7784 7.00084 10.7784Z" fill="#2675EB"/>
<path d="M3.96484 10.7784C4.24084 10.7784 4.46484 10.5544 4.46484 10.2784V5.81569C4.46484 5.53969 4.24084 5.31569 3.96484 5.31569C3.68884 5.31569 3.46484 5.53969 3.46484 5.81569V10.2784C3.46484 10.5544 3.68884 10.7784 3.96484 10.7784Z" fill="#2675EB"/>
</g>
</g>
</svg>
