<svg width="130" height="17" viewBox="0 0 130 17" fill="none" xmlns="http://www.w3.org/2000/svg">
<path d="M0 16.7224V0.855782H3.30023V16.7224H0Z" fill="#2675EB"/>
<path d="M10.4053 16.7224V3.74694H5.53245V0.855782H18.6226V3.74694H13.7276V16.7224H10.4053Z" fill="#2675EB"/>
<path d="M25.199 16.7224V0.855782H37.3367V3.67755H28.5214V7.21633H36.3179V10.015H28.5214V13.8776H37.4696V16.7224H25.199Z" fill="#222222"/>
<path d="M44.1724 17C43.2126 17 42.3783 16.7764 41.6695 16.3293C40.9755 15.8667 40.4365 15.1651 40.0526 14.2245C39.6687 13.2839 39.4767 12.0812 39.4767 10.6163C39.4767 9.15147 39.6687 7.95646 40.0526 7.03129C40.4513 6.0907 40.9903 5.39683 41.6695 4.94966C42.3635 4.50249 43.1609 4.27891 44.0616 4.27891C44.5637 4.27891 45.0288 4.34059 45.457 4.46395C45.9 4.57188 46.2839 4.74921 46.6088 4.99592C46.9484 5.24263 47.2363 5.54331 47.4726 5.89796H47.6055V0H50.6842V16.7224H48.1592L47.9156 15.0803H47.7605C47.3766 15.7279 46.8746 16.2136 46.2544 16.5374C45.6342 16.8458 44.9402 17 44.1724 17ZM45.1469 14.3633C45.7228 14.3633 46.1879 14.2245 46.5423 13.9469C46.9115 13.6694 47.1846 13.2685 47.3618 12.7442C47.539 12.22 47.6276 11.5955 47.6276 10.8707V10.4544C47.6276 9.91474 47.5759 9.42132 47.4726 8.97415C47.384 8.52699 47.2363 8.15692 47.0296 7.86395C46.8229 7.55556 46.5645 7.32426 46.2544 7.17007C45.9443 7.00045 45.5751 6.91565 45.1469 6.91565C44.5267 6.91565 44.0321 7.04671 43.6629 7.30884C43.2938 7.55556 43.028 7.94104 42.8656 8.46531C42.7031 8.97415 42.6219 9.61406 42.6219 10.385V10.917C42.6219 11.688 42.7031 12.3279 42.8656 12.8367C43.028 13.3456 43.2938 13.7311 43.6629 13.9932C44.0321 14.2399 44.5267 14.3633 45.1469 14.3633Z" fill="#222222"/>
<path d="M57.2935 17C56.1122 17 55.1745 16.6608 54.4805 15.9823C53.7865 15.3039 53.4395 14.2091 53.4395 12.698V4.55646H56.5183V12.166C56.5183 12.5669 56.5626 12.9061 56.6512 13.1837C56.7397 13.4458 56.8653 13.6617 57.0277 13.8313C57.2049 14.0009 57.419 14.1243 57.67 14.2014C57.921 14.2785 58.2016 14.317 58.5117 14.317C58.9694 14.317 59.3829 14.2014 59.752 13.9701C60.1212 13.7388 60.4091 13.4227 60.6159 13.0218C60.8226 12.6054 60.9259 12.1429 60.9259 11.634V4.55646H64.0047V16.7224H61.4797L61.2582 15.0571H61.1031C60.8226 15.4426 60.4903 15.7819 60.1064 16.0748C59.7373 16.3678 59.3164 16.5914 58.8439 16.7456C58.3714 16.9152 57.8546 17 57.2935 17Z" fill="#222222"/>
<path d="M71.9471 17C70.7067 17 69.6657 16.7764 68.824 16.3293C67.9824 15.8667 67.34 15.1651 66.897 14.2245C66.4688 13.2685 66.2547 12.0735 66.2547 10.6395C66.2547 9.1746 66.4688 7.97959 66.897 7.05442C67.34 6.11383 67.9824 5.41224 68.824 4.94966C69.6805 4.48707 70.7215 4.25578 71.9471 4.25578C72.7444 4.25578 73.4606 4.35601 74.0955 4.55646C74.7452 4.75692 75.3063 5.06531 75.7789 5.48163C76.2514 5.89796 76.6058 6.41451 76.842 7.03129C77.093 7.63265 77.2186 8.34966 77.2186 9.18231H74.1398C74.1398 8.62721 74.0586 8.17234 73.8962 7.81769C73.7338 7.46304 73.4827 7.1932 73.1431 7.00816C72.8183 6.82313 72.4048 6.73061 71.9028 6.73061C71.3121 6.73061 70.8322 6.86939 70.4631 7.14694C70.0939 7.42449 69.8207 7.83311 69.6435 8.37279C69.4663 8.91247 69.3778 9.58322 69.3778 10.385V10.917C69.3778 11.7034 69.4663 12.3664 69.6435 12.9061C69.8355 13.4458 70.1234 13.8544 70.5074 14.132C70.8913 14.3941 71.3933 14.5252 72.0135 14.5252C72.5155 14.5252 72.929 14.4327 73.2539 14.2476C73.5935 14.0626 73.8519 13.785 74.0291 13.415C74.2063 13.0449 74.2949 12.5977 74.2949 12.0735H77.2186C77.2186 12.8599 77.093 13.5615 76.842 14.1782C76.6058 14.795 76.2514 15.3116 75.7789 15.7279C75.3211 16.1442 74.7674 16.4603 74.1177 16.6762C73.468 16.8921 72.7444 17 71.9471 17Z" fill="#222222"/>
<path d="M82.6062 17C82.2222 17 81.8088 16.9537 81.3658 16.8612C80.9376 16.7687 80.5315 16.6068 80.1476 16.3755C79.7637 16.1288 79.4462 15.7819 79.1952 15.3347C78.9589 14.8721 78.8408 14.2862 78.8408 13.5769C78.8408 12.7288 79.018 12.0272 79.3724 11.4721C79.7268 10.917 80.2288 10.4853 80.8785 10.1769C81.543 9.85306 82.333 9.62948 83.2485 9.50612C84.164 9.38277 85.1755 9.32109 86.2829 9.32109V8.41905C86.2829 8.0644 86.2239 7.75601 86.1057 7.49388C86.0024 7.23175 85.8104 7.02358 85.5299 6.86939C85.2641 6.71519 84.8875 6.6381 84.4003 6.6381C83.913 6.6381 83.5143 6.69977 83.2042 6.82313C82.9089 6.94649 82.6948 7.10839 82.5619 7.30884C82.4437 7.49388 82.3847 7.70204 82.3847 7.93333V8.21088H79.3945C79.3798 8.13379 79.3724 8.0644 79.3724 8.00272C79.3724 7.92562 79.3724 7.83311 79.3724 7.72517C79.3724 7.01587 79.5791 6.4068 79.9926 5.89796C80.406 5.3737 80.9893 4.97279 81.7423 4.69524C82.4954 4.41769 83.374 4.27891 84.3781 4.27891C85.456 4.27891 86.3568 4.4254 87.0803 4.71837C87.8186 5.01134 88.3797 5.44308 88.7636 6.01361C89.1623 6.58413 89.3617 7.30113 89.3617 8.16463V13.6925C89.3617 13.9701 89.4355 14.1782 89.5831 14.317C89.7456 14.4404 89.9228 14.502 90.1147 14.502H90.8456V16.6068C90.698 16.6839 90.4691 16.761 90.159 16.8381C89.8489 16.9306 89.4724 16.9769 89.0294 16.9769C88.6012 16.9769 88.2173 16.9075 87.8777 16.7687C87.5528 16.6454 87.2796 16.468 87.0582 16.2367C86.8367 15.99 86.6816 15.6971 86.593 15.3578H86.438C86.1869 15.6816 85.8769 15.9669 85.5077 16.2136C85.1533 16.4603 84.7325 16.6531 84.2452 16.7918C83.7727 16.9306 83.2263 17 82.6062 17ZM83.6472 14.5714C84.0606 14.5714 84.4298 14.5098 84.7546 14.3864C85.0795 14.2476 85.3527 14.0703 85.5742 13.8544C85.7956 13.6231 85.9655 13.3456 86.0836 13.0218C86.2165 12.698 86.2829 12.351 86.2829 11.981V11.3102C85.456 11.3102 84.7177 11.3719 84.068 11.4952C83.4183 11.6032 82.9015 11.7959 82.5176 12.0735C82.1484 12.351 81.9639 12.7365 81.9639 13.2299C81.9639 13.5075 82.0303 13.7465 82.1632 13.9469C82.2961 14.1474 82.488 14.3016 82.7391 14.4095C82.9901 14.5175 83.2928 14.5714 83.6472 14.5714Z" fill="#222222"/>
<path d="M95.8531 17C95.1148 17 94.5168 16.8612 94.059 16.5837C93.6013 16.3061 93.269 15.9361 93.0623 15.4735C92.8556 14.9955 92.7522 14.4712 92.7522 13.9007V7.03129H91.3125V4.55646H92.863L93.4388 1.08707H95.8309V4.55646H97.9573V7.03129H95.8309V13.3687C95.8309 13.7388 95.9121 14.024 96.0746 14.2245C96.237 14.4095 96.5028 14.502 96.872 14.502H97.9573V16.6299C97.7801 16.6916 97.5733 16.7456 97.3371 16.7918C97.1008 16.8535 96.8498 16.8998 96.584 16.9306C96.3182 16.9769 96.0746 17 95.8531 17Z" fill="#222222"/>
<path d="M99.9462 2.77551V0H103.025V2.77551H99.9462ZM99.9462 16.7224V4.55646H103.025V16.7224H99.9462Z" fill="#222222"/>
<path d="M111.211 17C109.941 17 108.863 16.7764 107.978 16.3293C107.092 15.8667 106.42 15.1651 105.962 14.2245C105.504 13.2685 105.275 12.0735 105.275 10.6395C105.275 9.1746 105.504 7.97959 105.962 7.05442C106.42 6.11383 107.092 5.41996 107.978 4.97279C108.863 4.5102 109.941 4.27891 111.211 4.27891C112.511 4.27891 113.596 4.5102 114.467 4.97279C115.353 5.41996 116.025 6.11383 116.483 7.05442C116.941 7.97959 117.169 9.1746 117.169 10.6395C117.169 12.0735 116.941 13.2685 116.483 14.2245C116.025 15.1651 115.353 15.8667 114.467 16.3293C113.596 16.7764 112.511 17 111.211 17ZM111.211 14.502C111.891 14.502 112.429 14.371 112.828 14.1088C113.242 13.8467 113.544 13.4458 113.736 12.9061C113.928 12.3664 114.024 11.7034 114.024 10.917V10.3619C114.024 9.57551 113.928 8.91247 113.736 8.37279C113.544 7.83311 113.242 7.4322 112.828 7.17007C112.429 6.89252 111.891 6.75374 111.211 6.75374C110.547 6.75374 110.008 6.89252 109.594 7.17007C109.196 7.4322 108.9 7.83311 108.708 8.37279C108.516 8.91247 108.42 9.57551 108.42 10.3619V10.917C108.42 11.7034 108.516 12.3664 108.708 12.9061C108.9 13.4458 109.196 13.8467 109.594 14.1088C110.008 14.371 110.547 14.502 111.211 14.502Z" fill="#222222"/>
<path d="M119.435 16.7224V4.55646H121.982L122.226 6.22177H122.381C122.646 5.82086 122.964 5.47392 123.333 5.18095C123.717 4.88798 124.145 4.6644 124.618 4.51021C125.09 4.35601 125.607 4.27891 126.168 4.27891C126.936 4.27891 127.608 4.4254 128.184 4.71837C128.76 5.01134 129.203 5.47392 129.513 6.10612C129.838 6.73832 130 7.56327 130 8.58095V16.7224H126.921V9.0898C126.921 8.70431 126.877 8.3805 126.788 8.11837C126.7 7.84082 126.567 7.61723 126.39 7.44762C126.227 7.26259 126.021 7.13152 125.77 7.05442C125.519 6.97732 125.238 6.93878 124.928 6.93878C124.47 6.93878 124.057 7.05442 123.688 7.28571C123.318 7.51701 123.03 7.83311 122.824 8.23401C122.617 8.63492 122.514 9.09751 122.514 9.62177V16.7224H119.435Z" fill="#222222"/>
</svg>
