<svg width="164" height="22" viewBox="0 0 164 22" fill="none" xmlns="http://www.w3.org/2000/svg">
<g id="IT Education">
<path d="M0 21.6408V1.10748H4.16336V21.6408H0Z" fill="white"/>
<path d="M13.1266 21.6408V4.84898H6.97939V1.10748H23.4931V4.84898H17.3179V21.6408H13.1266Z" fill="white"/>
<path d="M31.7895 21.6408V1.10748H47.1017V4.75918H35.9808V9.33878H45.8164V12.9605H35.9808V17.9592H47.2694V21.6408H31.7895Z" fill="white"/>
<path d="M55.7251 22C54.5143 22 53.4618 21.7107 52.5677 21.132C51.6922 20.5333 51.0122 19.6254 50.5279 18.4082C50.0436 17.1909 49.8014 15.6345 49.8014 13.7388C49.8014 11.8431 50.0436 10.2966 50.5279 9.09932C51.0309 7.88209 51.7108 6.98413 52.5677 6.40544C53.4432 5.82676 54.4491 5.53741 55.5854 5.53741C56.2188 5.53741 56.8055 5.61723 57.3458 5.77687C57.9046 5.91655 58.3889 6.14603 58.7987 6.46531C59.2272 6.78458 59.5904 7.1737 59.8885 7.63265H60.0561V0H63.9401V21.6408H60.7547L60.4473 19.5156H60.2517C59.7674 20.3537 59.1341 20.9823 58.3517 21.4014C57.5693 21.8005 56.6938 22 55.7251 22ZM56.9546 18.5878C57.6811 18.5878 58.2678 18.4082 58.7149 18.049C59.1806 17.6898 59.5252 17.171 59.7488 16.4925C59.9723 15.8141 60.0841 15.0059 60.0841 14.068V13.5293C60.0841 12.8308 60.0189 12.1923 59.8885 11.6136C59.7767 11.0349 59.5904 10.556 59.3296 10.1769C59.0688 9.77778 58.7429 9.47846 58.3517 9.27891C57.9605 9.05941 57.4948 8.94966 56.9546 8.94966C56.1722 8.94966 55.5482 9.11928 55.0825 9.4585C54.6168 9.77778 54.2815 10.2766 54.0765 10.9551C53.8716 11.6136 53.7692 12.4417 53.7692 13.4395V14.1279C53.7692 15.1256 53.8716 15.9537 54.0765 16.6122C54.2815 17.2707 54.6168 17.7696 55.0825 18.1088C55.5482 18.4281 56.1722 18.5878 56.9546 18.5878Z" fill="white"/>
<path d="M72.2779 22C70.7877 22 69.6048 21.561 68.7293 20.683C67.8538 19.805 67.416 18.3882 67.416 16.4327V5.8966H71.3V15.7442C71.3 16.263 71.3558 16.702 71.4676 17.0612C71.5794 17.4005 71.7377 17.6798 71.9426 17.8993C72.1662 18.1188 72.4363 18.2785 72.753 18.3782C73.0696 18.478 73.4236 18.5279 73.8147 18.5279C74.3922 18.5279 74.9138 18.3782 75.3795 18.0789C75.8452 17.7796 76.2084 17.3705 76.4692 16.8517C76.73 16.3129 76.8604 15.7143 76.8604 15.0558V5.8966H80.7444V21.6408H77.559L77.2796 19.4857H77.084C76.73 19.9846 76.3109 20.4236 75.8266 20.8027C75.3609 21.1819 74.83 21.4712 74.2339 21.6707C73.6378 21.8903 72.9858 22 72.2779 22Z" fill="white"/>
<path d="M90.764 22C89.1992 22 87.8859 21.7107 86.8242 21.132C85.7624 20.5333 84.952 19.6254 84.3932 18.4082C83.853 17.171 83.5829 15.6245 83.5829 13.7687C83.5829 11.873 83.853 10.3265 84.3932 9.12925C84.952 7.91202 85.7624 7.00408 86.8242 6.40544C87.9046 5.8068 89.2179 5.50748 90.764 5.50748C91.7699 5.50748 92.6734 5.63719 93.4744 5.8966C94.294 6.15601 95.0019 6.5551 95.598 7.09388C96.194 7.63265 96.6411 8.30113 96.9392 9.09932C97.2559 9.87755 97.4142 10.8054 97.4142 11.883H93.5302C93.5302 11.1646 93.4278 10.576 93.2229 10.117C93.018 9.65805 92.7013 9.30884 92.2729 9.06939C91.863 8.82993 91.3415 8.71021 90.7081 8.71021C89.963 8.71021 89.3576 8.8898 88.8919 9.24898C88.4262 9.60816 88.0815 10.137 87.858 10.8354C87.6345 11.5338 87.5227 12.4018 87.5227 13.4395V14.1279C87.5227 15.1456 87.6345 16.0036 87.858 16.702C88.1002 17.4005 88.4634 17.9293 88.9478 18.2884C89.4321 18.6277 90.0654 18.7973 90.8478 18.7973C91.4812 18.7973 92.0027 18.6776 92.4126 18.4381C92.841 18.1986 93.167 17.8395 93.3905 17.3605C93.6141 16.8816 93.7258 16.3029 93.7258 15.6245H97.4142C97.4142 16.6422 97.2559 17.5501 96.9392 18.3483C96.6411 19.1465 96.194 19.815 95.598 20.3537C95.0205 20.8925 94.3219 21.3016 93.5023 21.581C92.6827 21.8603 91.7699 22 90.764 22Z" fill="white"/>
<path d="M104.211 22C103.727 22 103.205 21.9401 102.646 21.8204C102.106 21.7007 101.594 21.4912 101.109 21.1918C100.625 20.8726 100.224 20.4236 99.9078 19.8449C99.6098 19.2463 99.4607 18.488 99.4607 17.5701C99.4607 16.4726 99.6843 15.5646 100.131 14.8463C100.578 14.1279 101.212 13.5692 102.031 13.1701C102.87 12.751 103.866 12.4617 105.021 12.302C106.176 12.1424 107.452 12.0626 108.849 12.0626V10.8952C108.849 10.4363 108.775 10.0372 108.626 9.69796C108.495 9.35873 108.253 9.08934 107.899 8.8898C107.564 8.69025 107.089 8.59048 106.474 8.59048C105.859 8.59048 105.356 8.6703 104.965 8.82993C104.593 8.98957 104.323 9.19909 104.155 9.4585C104.006 9.69796 103.931 9.96735 103.931 10.2667V10.6259H100.159C100.141 10.5261 100.131 10.4363 100.131 10.3565C100.131 10.2567 100.131 10.137 100.131 9.99728C100.131 9.07936 100.392 8.29116 100.914 7.63265C101.435 6.9542 102.171 6.43537 103.121 6.07619C104.071 5.71701 105.18 5.53741 106.446 5.53741C107.806 5.53741 108.942 5.72698 109.855 6.10612C110.787 6.48526 111.494 7.04399 111.979 7.78231C112.482 8.52064 112.733 9.44853 112.733 10.566V17.7197C112.733 18.0789 112.826 18.3483 113.013 18.5279C113.217 18.6875 113.441 18.7673 113.683 18.7673H114.605V21.4912C114.419 21.5909 114.13 21.6907 113.739 21.7905C113.348 21.9102 112.873 21.9701 112.314 21.9701C111.774 21.9701 111.29 21.8803 110.861 21.7007C110.451 21.541 110.107 21.3116 109.827 21.0122C109.548 20.693 109.352 20.3138 109.24 19.8748H109.045C108.728 20.2939 108.337 20.663 107.871 20.9823C107.424 21.3016 106.893 21.551 106.279 21.7306C105.682 21.9102 104.993 22 104.211 22ZM105.524 18.8571C106.046 18.8571 106.511 18.7773 106.921 18.6177C107.331 18.4381 107.676 18.2086 107.955 17.9293C108.235 17.6299 108.449 17.2707 108.598 16.8517C108.765 16.4327 108.849 15.9837 108.849 15.5048V14.6367C107.806 14.6367 106.875 14.7166 106.055 14.8762C105.235 15.0159 104.583 15.2653 104.099 15.6245C103.633 15.9837 103.401 16.4825 103.401 17.1211C103.401 17.4803 103.484 17.7896 103.652 18.049C103.82 18.3084 104.062 18.5079 104.379 18.6476C104.695 18.7873 105.077 18.8571 105.524 18.8571Z" fill="white"/>
<path d="M120.922 22C119.991 22 119.237 21.8204 118.659 21.4612C118.082 21.102 117.662 20.6231 117.402 20.0245C117.141 19.4059 117.01 18.7274 117.01 17.9891V9.09932H115.194V5.8966H117.15L117.877 1.4068H120.894V5.8966H123.577V9.09932H120.894V17.3007C120.894 17.7796 120.997 18.1488 121.202 18.4082C121.407 18.6476 121.742 18.7673 122.208 18.7673H123.577V21.5211C123.353 21.6009 123.093 21.6707 122.794 21.7306C122.496 21.8104 122.18 21.8703 121.844 21.9102C121.509 21.9701 121.202 22 120.922 22Z" fill="white"/>
<path d="M126.086 3.59184V0H129.97V3.59184H126.086ZM126.086 21.6408V5.8966H129.97V21.6408H126.086Z" fill="white"/>
<path d="M140.297 22C138.695 22 137.335 21.7107 136.218 21.132C135.1 20.5333 134.253 19.6254 133.675 18.4082C133.098 17.171 132.809 15.6245 132.809 13.7687C132.809 11.873 133.098 10.3265 133.675 9.12925C134.253 7.91202 135.1 7.01406 136.218 6.43538C137.335 5.83674 138.695 5.53741 140.297 5.53741C141.937 5.53741 143.306 5.83674 144.405 6.43538C145.522 7.01406 146.37 7.91202 146.948 9.12925C147.525 10.3265 147.814 11.873 147.814 13.7687C147.814 15.6245 147.525 17.171 146.948 18.4082C146.37 19.6254 145.522 20.5333 144.405 21.132C143.306 21.7107 141.937 22 140.297 22ZM140.297 18.7673C141.154 18.7673 141.834 18.5977 142.337 18.2585C142.859 17.9193 143.241 17.4005 143.483 16.702C143.725 16.0036 143.846 15.1456 143.846 14.1279V13.4095C143.846 12.3918 143.725 11.5338 143.483 10.8354C143.241 10.137 142.859 9.61814 142.337 9.27891C141.834 8.91973 141.154 8.74014 140.297 8.74014C139.459 8.74014 138.779 8.91973 138.258 9.27891C137.755 9.61814 137.382 10.137 137.14 10.8354C136.898 11.5338 136.777 12.3918 136.777 13.4095V14.1279C136.777 15.1456 136.898 16.0036 137.14 16.702C137.382 17.4005 137.755 17.9193 138.258 18.2585C138.779 18.5977 139.459 18.7673 140.297 18.7673Z" fill="white"/>
<path d="M150.672 21.6408V5.8966H153.885L154.192 8.0517H154.388C154.723 7.53288 155.124 7.0839 155.589 6.70476C156.074 6.32562 156.614 6.03628 157.21 5.83674C157.806 5.63719 158.458 5.53741 159.166 5.53741C160.135 5.53741 160.982 5.72698 161.709 6.10612C162.435 6.48526 162.994 7.0839 163.385 7.90204C163.795 8.72018 164 9.78776 164 11.1048V21.6408H160.116V11.7633C160.116 11.2644 160.06 10.8454 159.948 10.5061C159.837 10.1469 159.669 9.8576 159.445 9.6381C159.241 9.39864 158.98 9.22903 158.663 9.12925C158.346 9.02948 157.992 8.97959 157.601 8.97959C157.024 8.97959 156.502 9.12925 156.037 9.42857C155.571 9.72789 155.208 10.137 154.947 10.6558C154.686 11.1746 154.556 11.7732 154.556 12.4517V21.6408H150.672Z" fill="white"/>
</g>
</svg>
