<svg width="16" height="16" viewBox="0 0 16 16" fill="none" xmlns="http://www.w3.org/2000/svg">
<path opacity="0.4" d="M14.6663 10.6254C14.6663 12.4854 13.173 13.992 11.313 13.9987H11.3063H4.69967C2.84634 13.9987 1.33301 12.4987 1.33301 10.6387V10.632C1.33301 10.632 1.33701 7.68136 1.34234 6.19736C1.34301 5.9187 1.66301 5.7627 1.88101 5.93603C3.46501 7.1927 6.29767 9.48403 6.33301 9.51403C6.80634 9.89336 7.40634 10.1074 8.01967 10.1074C8.63301 10.1074 9.23301 9.89336 9.70634 9.5067C9.74168 9.48336 12.511 7.2607 14.119 5.98336C14.3377 5.80936 14.659 5.96536 14.6597 6.24336C14.6663 7.71603 14.6663 10.6254 14.6663 10.6254Z" fill="#2675EB"/>
<path d="M14.3166 3.78267C13.7393 2.69467 12.6033 2 11.3526 2H4.69927C3.4486 2 2.3126 2.69467 1.73527 3.78267C1.60594 4.026 1.66727 4.32933 1.8826 4.50133L6.8326 8.46067C7.17927 8.74067 7.59927 8.88 8.01927 8.88C8.02194 8.88 8.02394 8.88 8.02594 8.88C8.02794 8.88 8.0306 8.88 8.03261 8.88C8.45261 8.88 8.8726 8.74067 9.21927 8.46067L14.1693 4.50133C14.3846 4.32933 14.4459 4.026 14.3166 3.78267Z" fill="#2675EB"/>
</svg>
