<svg width="24" height="24" viewBox="0 0 24 24" fill="none" xmlns="http://www.w3.org/2000/svg">
<path opacity="0.4" fill-rule="evenodd" clip-rule="evenodd" d="M13.2502 7.04961L12.1752 7.54961L11.1502 7.04961V4.14961C11.1502 4.04961 11.2502 3.84961 11.4502 3.84961H12.9502C13.0222 3.84961 13.1482 3.90261 13.2112 4.00861C13.2352 4.04761 13.2502 4.09461 13.2502 4.14961V7.04961ZM16.6502 4.94961H14.6502V4.14961C14.6502 3.14961 13.8502 2.44961 12.9502 2.34961H11.3502C10.3502 2.34961 9.5502 3.14961 9.5502 4.14961V4.94961H7.6502C4.8502 4.94961 2.9502 6.94961 2.9502 9.84961V16.7496C2.9502 19.6496 4.8502 21.6496 7.6502 21.6496H16.6502C19.4502 21.6496 21.3502 19.6496 21.3502 16.7496V9.54961C21.2502 6.74961 19.3502 4.94961 16.6502 4.94961Z" fill="#2675EB"/>
<path d="M14.9665 11.5687H17.6335C18.0875 11.5687 18.4545 11.2017 18.4545 10.7477C18.4545 10.2947 18.0875 9.92773 17.6335 9.92773H14.9665C14.5135 9.92773 14.1455 10.2947 14.1455 10.7477C14.1455 11.2017 14.5135 11.5687 14.9665 11.5687Z" fill="#2675EB"/>
<path d="M14.9665 14.7621H17.6335C18.0875 14.7621 18.4545 14.3951 18.4545 13.9421C18.4545 13.4891 18.0875 13.1211 17.6335 13.1211H14.9665C14.5135 13.1211 14.1455 13.4891 14.1455 13.9421C14.1455 14.3951 14.5135 14.7621 14.9665 14.7621Z" fill="#2675EB"/>
<path d="M15.8649 18.1703H17.6329C18.0859 18.1703 18.4539 17.8033 18.4539 17.3503C18.4539 16.8963 18.0859 16.5293 17.6329 16.5293H15.8649C15.4119 16.5293 15.0449 16.8963 15.0449 17.3503C15.0449 17.8033 15.4119 18.1703 15.8649 18.1703Z" fill="#2675EB"/>
<path d="M6.38732 18.0846L12.5683 18.0766C12.7673 18.0756 12.9273 17.9156 12.9273 17.7176C12.9273 16.4156 11.8603 15.1016 9.47832 15.1016C7.09532 15.1016 6.02832 16.4196 6.02832 17.7256C6.02832 17.8216 6.06632 17.9126 6.13332 17.9796C6.20032 18.0466 6.29232 18.0846 6.38732 18.0846Z" fill="#2675EB"/>
<path d="M11.7162 11.7536C11.7162 10.5196 10.7122 9.51562 9.47726 9.51562C8.24326 9.51562 7.23926 10.5196 7.23926 11.7536C7.23926 12.9886 8.24326 13.9926 9.47726 13.9926C10.7122 13.9926 11.7162 12.9886 11.7162 11.7536Z" fill="#2675EB"/>
</svg>
