<svg width="120" height="120" viewBox="0 0 120 120" fill="none" xmlns="http://www.w3.org/2000/svg">
<path opacity="0.4" fill-rule="evenodd" clip-rule="evenodd" d="M98.4384 24.1283C95.4084 21.0933 78.7684 10.3633 59.9984 10.3633C41.2184 10.3633 24.5884 21.0933 21.5584 24.1283C18.6534 27.0383 18.6984 29.3033 18.9184 41.8733C19.0134 46.9733 19.1384 53.9133 19.1384 63.5033C19.1384 96.1033 45.7484 109.638 59.9984 109.638C74.2434 109.638 100.858 96.1033 100.858 63.5033C100.858 53.9083 100.983 46.9633 101.078 41.8683C101.303 29.2983 101.343 27.0383 98.4384 24.1283Z" fill="#2675EB"/>
<path d="M59.1151 70.6019L78.6051 51.1069C80.0701 49.6419 80.0701 47.2669 78.6051 45.8019C77.1401 44.3369 74.7651 44.3369 73.3001 45.8019L56.4651 62.6469L49.6551 55.8269C48.1901 54.3619 45.8151 54.3619 44.3551 55.8269C42.8851 57.2869 42.8851 59.6669 44.3501 61.1319L53.8101 70.6019C54.5151 71.3069 55.4701 71.7019 56.4651 71.7019C57.4601 71.7019 58.4101 71.3069 59.1151 70.6019Z" fill="#2675EB"/>
</svg>
