<svg width="16" height="16" viewBox="0 0 16 16" fill="none" xmlns="http://www.w3.org/2000/svg">
<g clip-path="url(#clip0_233_3509)">
<path fill-rule="evenodd" clip-rule="evenodd" d="M14.3337 8.00126C14.3337 10.803 12.5144 13.1798 9.99273 14.0149C9.36629 14.2224 8.69634 14.3346 8.00028 14.3346C7.97469 14.3346 7.94911 14.3345 7.92361 14.3342C4.46115 14.2931 1.66699 11.4735 1.66699 8.00126C1.66699 4.52905 4.50258 1.66797 8.00028 1.66797C11.498 1.66797 14.3337 4.50338 14.3337 8.00126Z" fill="#2675EB"/>
<path fill-rule="evenodd" clip-rule="evenodd" d="M11.5386 5.30981L10.4786 11.8118C10.4279 12.1222 10.0197 12.2222 9.73516 11.997C8.86966 11.312 8.0414 10.6564 7.24804 10.0284C6.89366 9.74795 6.83874 9.27364 7.12089 8.97304C7.78266 8.2681 8.44774 7.55943 9.11638 6.84709C9.23248 6.72342 9.04171 6.55319 8.8955 6.64858C7.85202 7.32993 6.82812 7.9984 5.82346 8.65434C5.60806 8.79498 5.32748 8.81473 5.08798 8.7076C4.5269 8.45661 3.98088 8.21241 3.44904 7.97464C3.16054 7.84558 3.18943 7.44194 3.49195 7.34298L10.9165 4.91313C11.2355 4.80878 11.5844 5.02862 11.5386 5.30981Z" fill="white"/>
</g>
<defs>
<clipPath id="clip0_233_3509">
<rect width="12.6667" height="12.6667" fill="white" transform="translate(1.66699 1.66797)"/>
</clipPath>
</defs>
</svg>
