<svg width="120" height="120" viewBox="0 0 120 120" fill="none" xmlns="http://www.w3.org/2000/svg">
<path fill-rule="evenodd" clip-rule="evenodd" d="M66.7615 35.0249C64.7069 35.0068 63.045 33.3338 63.045 31.275V15.035C62.5809 15.0327 62.136 15.0254 61.6885 15.018C61.1429 15.0091 60.5933 15 60 15C12.275 15 10 23.35 10 49.745C10 51.13 11.12 52.245 12.5 52.245C17.745 52.245 20.09 56.14 20.09 59.995C20.09 62.045 19.4 64.02 18.185 65.4C16.82 66.96 14.91 67.75 12.5 67.75C11.12 67.75 10 68.865 10 70.25C10 96.65 12.275 105 60 105C60.6731 105 61.2898 104.99 61.9084 104.981C62.2823 104.975 62.6569 104.969 63.045 104.965V87.72C63.045 85.6612 64.7069 83.9882 66.7615 83.9701V76.4699C64.7069 76.4518 63.045 74.7788 63.045 72.72V46.275C63.045 44.2162 64.7069 42.5432 66.7615 42.5251V35.0249Z" fill="#2675EB"/>
<path d="M66.7627 83.9707C66.7737 83.9707 66.7847 83.9707 66.7957 83.9707C68.866 83.9707 70.5457 85.6504 70.5457 87.7207V104.811C107.976 103.521 110.001 94.5298 110.001 70.25C110.001 68.8657 108.881 67.75 107.501 67.75C102.256 67.75 99.9109 63.8608 99.9109 59.9961C99.9109 56.1411 102.256 52.2471 107.501 52.2471C108.881 52.2471 110.001 51.1313 110.001 49.7471C110.001 25.4722 107.976 16.4805 70.5457 15.1914V31.2754C70.5457 33.3457 68.866 35.0254 66.7957 35.0254C66.7847 35.0254 66.7737 35.0254 66.7627 35.0254V42.5254C66.7737 42.5254 66.7847 42.5254 66.7957 42.5254C68.866 42.5254 70.5457 44.2051 70.5457 46.2754V72.7207C70.5457 74.791 68.866 76.4707 66.7957 76.4707C66.7847 76.4707 66.7737 76.4707 66.7627 76.4707V83.9707Z" fill="#B9D2F9"/>
</svg>
