<svg width="14" height="14" viewBox="0 0 14 14" fill="none" xmlns="http://www.w3.org/2000/svg">
<g id="Group 37009">
<path id="Fill 624" opacity="0.4" fill-rule="evenodd" clip-rule="evenodd" d="M7 0.5C2.20067 0.5 0.5 2.20067 0.5 7C0.5 11.7987 2.20067 13.5 7 13.5C11.7993 13.5 13.5 11.7987 13.5 7C13.5 2.20067 11.7993 0.5 7 0.5Z" fill="#2675EB"/>
<path id="Fill 665" d="M9.25902 8.84584C9.42969 8.84584 9.59569 8.75851 9.68902 8.60184C9.83036 8.36518 9.75302 8.05851 9.51569 7.91651L7.49902 6.71384V4.08984C7.49902 3.81384 7.27502 3.58984 6.99902 3.58984C6.72302 3.58984 6.49902 3.81384 6.49902 4.08984V6.99784C6.49902 7.17318 6.59169 7.33718 6.74302 7.42718L9.00369 8.77584C9.08369 8.82318 9.17236 8.84584 9.25902 8.84584Z" fill="#2675EB"/>
</g>
</svg>
