<svg width="20" height="20" viewBox="0 0 20 20" fill="none" xmlns="http://www.w3.org/2000/svg">
<path fill-rule="evenodd" clip-rule="evenodd" d="M15.1337 9.83465C15.1337 10.1797 14.8537 10.4597 14.5087 10.4597C14.1637 10.4597 13.8837 10.1797 13.8837 9.83465C13.8837 9.48965 14.1637 9.20965 14.5087 9.20965C14.8537 9.20965 15.1337 9.48965 15.1337 9.83465ZM12.8812 9.88465C12.8812 10.7172 13.5595 11.3947 14.392 11.3947H18.1087C18.1437 10.9547 18.167 10.4972 18.167 10.0013C18.167 9.41632 18.1378 8.88049 18.0887 8.37299H14.392C13.5595 8.37299 12.8812 9.05132 12.8812 9.88465Z" fill="#2675EB"/>
<path fill-rule="evenodd" clip-rule="evenodd" d="M9.70967 7.20208H6.32634C5.98134 7.20208 5.70134 6.92208 5.70134 6.57708C5.70134 6.23208 5.98134 5.95208 6.32634 5.95208H9.70967C10.0547 5.95208 10.3347 6.23208 10.3347 6.57708C10.3347 6.92208 10.0547 7.20208 9.70967 7.20208ZM14.3922 12.6446C12.8697 12.6446 11.6313 11.4062 11.6313 9.88458C11.6313 8.36208 12.8697 7.12292 14.3922 7.12292H17.9005C17.1688 3.74458 14.8413 2.46875 10.0005 2.46875C3.97051 2.46875 1.83301 4.44042 1.83301 10.0012C1.83301 15.5629 3.97051 17.5337 10.0005 17.5337C14.9522 17.5337 17.2755 16.2004 17.9488 12.6446H14.3922Z" fill="#2675EB"/>
</svg>
