<svg width="16" height="16" viewBox="0 0 16 16" fill="none" xmlns="http://www.w3.org/2000/svg">
<path fill-rule="evenodd" clip-rule="evenodd" d="M5.26699 7.99982C5.26699 7.34915 5.30699 6.69782 5.38233 6.07113C4.25366 5.94113 3.18966 5.73313 2.20566 5.45312C1.86166 6.23312 1.66699 7.09382 1.66699 7.99982C1.66699 8.90582 1.86099 9.76582 2.20499 10.5458C3.19166 10.2645 4.25633 10.0558 5.38233 9.92649C5.30699 9.30049 5.26699 8.64982 5.26699 7.99982Z" fill="#2675EB"/>
<path fill-rule="evenodd" clip-rule="evenodd" d="M10.6182 6.07112C10.6935 6.6978 10.7335 7.34913 10.7335 7.9998C10.7335 8.6498 10.6935 9.2998 10.6182 9.9258C11.7442 10.0551 12.8088 10.2638 13.7955 10.5445C14.1395 9.76513 14.3335 8.90513 14.3335 7.9998C14.3335 7.0938 14.1388 6.23379 13.7948 5.45312C12.8108 5.73379 11.7462 5.94179 10.6182 6.07112Z" fill="#2675EB"/>
<path fill-rule="evenodd" clip-rule="evenodd" d="M6.37793 6.16016C6.30793 6.72218 6.2666 7.33618 6.2666 8.00018C6.2666 8.66351 6.30793 9.27751 6.37793 9.83884C7.45594 9.76284 8.54061 9.76284 9.62194 9.83884C9.69194 9.27751 9.73327 8.66351 9.73327 8.00018C9.73327 7.33618 9.69194 6.72218 9.62194 6.16016C9.08127 6.19816 8.53994 6.22416 7.99861 6.22416C7.45727 6.22416 6.91661 6.19816 6.37793 6.16016Z" fill="#2675EB"/>
<g opacity="0.4">
<path fill-rule="evenodd" clip-rule="evenodd" d="M9.45767 5.17C9.10434 3.488 8.47834 2.5 7.999 2.5C7.51967 2.5 6.89434 3.488 6.54102 5.17C7.50967 5.234 8.485 5.234 9.45767 5.17Z" fill="#2675EB"/>
<path fill-rule="evenodd" clip-rule="evenodd" d="M6.54004 10.8298C6.89336 12.5131 7.51936 13.5017 7.99869 13.5017C8.47869 13.5017 9.10469 12.5131 9.45803 10.8298C8.48536 10.7651 7.51003 10.7651 6.54004 10.8298Z" fill="#2675EB"/>
<path fill-rule="evenodd" clip-rule="evenodd" d="M10.4645 10.918C10.1539 12.508 9.57388 13.802 8.74121 14.2886C10.6519 14.0646 12.3025 12.988 13.3059 11.4493C12.4199 11.21 11.4692 11.0306 10.4645 10.918Z" fill="#2675EB"/>
<path fill-rule="evenodd" clip-rule="evenodd" d="M5.53469 10.918C4.53003 11.0313 3.57936 11.2106 2.69336 11.45C3.69669 12.9886 5.34736 14.0646 7.25805 14.2886C6.42536 13.8013 5.84536 12.508 5.53469 10.918Z" fill="#2675EB"/>
<path fill-rule="evenodd" clip-rule="evenodd" d="M5.535 5.08351C5.84567 3.49484 6.42567 2.20151 7.25764 1.71484C5.34767 1.93884 3.69767 3.01484 2.69434 4.55218C3.57767 4.79084 4.52834 4.97018 5.535 5.08351Z" fill="#2675EB"/>
<path fill-rule="evenodd" clip-rule="evenodd" d="M10.4645 5.08418C11.4712 4.97084 12.4219 4.79151 13.3052 4.55351C12.3025 3.01551 10.6519 1.93951 8.74121 1.71484C9.57388 2.20218 10.1539 3.49484 10.4645 5.08418Z" fill="#2675EB"/>
</g>
</svg>
