<svg width="40" height="40" viewBox="0 0 40 40" fill="none" xmlns="http://www.w3.org/2000/svg">
<g id="AWS (Amazon Web Services) Logomark">
<g id="AWS (Amazon Web Services)">
<path d="M12.2411 17.0539C12.2411 17.4915 12.2884 17.8462 12.3712 18.1064C12.4658 18.3665 12.5841 18.6503 12.7496 18.9578C12.8087 19.0524 12.8324 19.147 12.8324 19.2298C12.8324 19.348 12.7614 19.4663 12.6077 19.5845L11.8627 20.0812C11.7563 20.1522 11.6499 20.1876 11.5552 20.1876C11.437 20.1876 11.3187 20.1285 11.2005 20.0221C11.0349 19.8447 10.893 19.6555 10.7748 19.4663C10.6565 19.2653 10.5383 19.0406 10.4082 18.7686C9.48582 19.8565 8.32693 20.4005 6.93154 20.4005C5.93821 20.4005 5.14592 20.1167 4.56647 19.5491C3.98703 18.9815 3.6914 18.2246 3.6914 17.2786C3.6914 16.2735 4.04616 15.4575 4.76751 14.8426C5.48885 14.2277 6.4467 13.9202 7.66471 13.9202C8.06677 13.9202 8.48066 13.9557 8.9182 14.0148C9.35574 14.074 9.8051 14.1686 10.2781 14.275V13.4118C10.2781 12.513 10.0889 11.8863 9.72232 11.5197C9.34391 11.1531 8.70534 10.9757 7.79479 10.9757C7.3809 10.9757 6.95519 11.023 6.51766 11.1295C6.08012 11.2359 5.65441 11.366 5.24052 11.5315C5.05131 11.6143 4.90941 11.6616 4.82663 11.6853C4.74385 11.7089 4.68473 11.7207 4.63743 11.7207C4.47187 11.7207 4.38909 11.6025 4.38909 11.3542V10.7747C4.38909 10.5855 4.41274 10.4436 4.47187 10.3608C4.531 10.2781 4.63743 10.1953 4.80298 10.1125C5.21687 9.89964 5.71353 9.72227 6.29297 9.58036C6.87242 9.42663 7.48733 9.35568 8.13773 9.35568C9.54494 9.35568 10.5737 9.67496 11.236 10.3135C11.8864 10.9521 12.2175 11.9218 12.2175 13.2225V17.0539H12.2411ZM7.44003 18.8514C7.83027 18.8514 8.23233 18.7804 8.65804 18.6385C9.08375 18.4966 9.46216 18.2365 9.78145 17.8817C9.97065 17.657 10.1126 17.4087 10.1835 17.1249C10.2545 16.8411 10.3018 16.4981 10.3018 16.0961V15.5994C9.95883 15.5167 9.59224 15.4457 9.21383 15.3984C8.83542 15.3511 8.46884 15.3274 8.10225 15.3274C7.30995 15.3274 6.73051 15.4812 6.34027 15.8005C5.95004 16.1197 5.76083 16.5691 5.76083 17.1604C5.76083 17.7162 5.90274 18.13 6.19837 18.4138C6.48218 18.7095 6.89607 18.8514 7.44003 18.8514ZM16.9358 20.1285C16.7229 20.1285 16.581 20.093 16.4864 20.0103C16.3918 19.9393 16.309 19.7738 16.2381 19.5491L13.4591 10.4081C13.3882 10.1716 13.3527 10.0179 13.3527 9.93512C13.3527 9.74592 13.4473 9.63949 13.6365 9.63949H14.7954C15.0201 9.63949 15.1738 9.67496 15.2566 9.75774C15.3512 9.82869 15.4221 9.99425 15.4931 10.2189L17.4797 18.0473L19.3245 10.2189C19.3836 9.98242 19.4546 9.82869 19.5492 9.75774C19.6438 9.68679 19.8093 9.63949 20.0222 9.63949H20.9682C21.1929 9.63949 21.3466 9.67496 21.4412 9.75774C21.5358 9.82869 21.6186 9.99425 21.6659 10.2189L23.5343 18.1419L25.5801 10.2189C25.6511 9.98242 25.7338 9.82869 25.8166 9.75774C25.9112 9.68679 26.0649 9.63949 26.2778 9.63949H27.3776C27.5668 9.63949 27.6732 9.73409 27.6732 9.93512C27.6732 9.99425 27.6614 10.0534 27.6495 10.1243C27.6377 10.1953 27.6141 10.2899 27.5668 10.42L24.7168 19.5609C24.6459 19.7974 24.5631 19.9511 24.4685 20.0221C24.3739 20.093 24.2202 20.1403 24.0192 20.1403H23.0022C22.7775 20.1403 22.6238 20.1049 22.5292 20.0221C22.4346 19.9393 22.3518 19.7856 22.3045 19.5491L20.4716 11.9218L18.6505 19.5372C18.5913 19.7738 18.5204 19.9275 18.4258 20.0103C18.3312 20.093 18.1656 20.1285 17.9528 20.1285H16.9358ZM32.1313 20.4478C31.5164 20.4478 30.9015 20.3768 30.3102 20.2349C29.719 20.093 29.2578 19.9393 28.9503 19.7619C28.7611 19.6555 28.631 19.5372 28.5837 19.4308C28.5364 19.3244 28.5128 19.2061 28.5128 19.0997V18.4966C28.5128 18.2483 28.6074 18.13 28.7848 18.13C28.8557 18.13 28.9267 18.1419 28.9976 18.1655C29.0686 18.1892 29.175 18.2365 29.2933 18.2838C29.6953 18.4611 30.1329 18.603 30.594 18.6976C31.0671 18.7923 31.5282 18.8396 32.0013 18.8396C32.7463 18.8396 33.3257 18.7095 33.7278 18.4493C34.1298 18.1892 34.3427 17.8108 34.3427 17.3259C34.3427 16.9948 34.2362 16.7228 34.0234 16.4981C33.8105 16.2735 33.4085 16.0724 32.829 15.8832L31.1144 15.3511C30.2511 15.0791 29.6125 14.6771 29.2223 14.1449C28.8321 13.6246 28.631 13.0452 28.631 12.4303C28.631 11.9336 28.7375 11.4961 28.9503 11.1176C29.1632 10.7392 29.447 10.4081 29.8017 10.148C30.1565 9.87599 30.5586 9.67496 31.0316 9.53306C31.5046 9.39116 32.0013 9.33203 32.5216 9.33203C32.7817 9.33203 33.0537 9.34386 33.3139 9.37933C33.5859 9.41481 33.8342 9.46211 34.0825 9.50941C34.319 9.56854 34.5437 9.62766 34.7566 9.69861C34.9694 9.76957 35.135 9.84052 35.2532 9.91147C35.4188 10.0061 35.537 10.1007 35.608 10.2071C35.6789 10.3017 35.7144 10.4318 35.7144 10.5973V11.1531C35.7144 11.4015 35.6198 11.5315 35.4424 11.5315C35.3478 11.5315 35.1941 11.4842 34.9931 11.3896C34.319 11.0822 33.5622 10.9284 32.7226 10.9284C32.0486 10.9284 31.5164 11.0349 31.1498 11.2596C30.7832 11.4842 30.594 11.8272 30.594 12.312C30.594 12.6431 30.7123 12.9269 30.9488 13.1516C31.1853 13.3763 31.6228 13.601 32.2496 13.802L33.9288 14.3341C34.7802 14.6061 35.3951 14.9845 35.7617 15.4693C36.1283 15.9542 36.3057 16.51 36.3057 17.1249C36.3057 17.6334 36.1993 18.0946 35.9982 18.4966C35.7854 18.8987 35.5016 19.2534 35.135 19.5372C34.7684 19.8329 34.3308 20.0457 33.8224 20.1995C33.2902 20.365 32.7344 20.4478 32.1313 20.4478Z" fill="#221F1F"/>
<path fill-rule="evenodd" clip-rule="evenodd" d="M34.3677 26.1949C30.4772 29.0684 24.8247 30.5939 19.9644 30.5939C13.1531 30.5939 7.0157 28.0751 2.38017 23.8889C2.01359 23.5578 2.3447 23.1085 2.78223 23.3686C7.79618 26.2777 13.9808 28.0396 20.3783 28.0396C24.6946 28.0396 29.4365 27.1409 33.8001 25.2962C34.4505 25.0005 35.0063 25.7219 34.3677 26.1949Z" fill="#FF9900"/>
<path fill-rule="evenodd" clip-rule="evenodd" d="M35.988 24.3501C35.4913 23.7115 32.7005 24.0426 31.4352 24.1964C31.0568 24.2437 30.9977 23.9125 31.3406 23.6642C33.5638 22.1033 37.2178 22.5526 37.6435 23.0729C38.0692 23.6051 37.5253 27.2591 35.444 29.0092C35.1247 29.2812 34.8173 29.1393 34.9592 28.7846C35.4322 27.6139 36.4846 24.9768 35.988 24.3501Z" fill="#FF9900"/>
</g>
</g>
</svg>
