<svg width="40" height="40" viewBox="0 0 36 36" fill="none" xmlns="http://www.w3.org/2000/svg">
<g id="Behance Logomark">
<rect x="0.222656" y="0.222656" width="35.5556" height="35.5556" rx="5" fill="#1769FF"/>
<path id="behance" d="M12.7811 9.94531C13.5477 9.94531 14.2474 10.0136 14.8803 10.1487C15.5132 10.2838 16.0536 10.5057 16.5045 10.8143C16.9553 11.1229 17.3052 11.5325 17.5541 12.0445C17.803 12.5565 17.9267 13.188 17.9267 13.9403C17.9267 14.7524 17.7418 15.4294 17.3734 15.9713C17.0051 16.5131 16.459 16.9569 15.7379 17.3025C16.7306 17.5883 17.4716 18.089 17.9608 18.8029C18.4501 19.5169 18.6947 20.3787 18.6947 21.3871C18.6947 22.1992 18.5368 22.9032 18.2211 23.4977C17.9054 24.0922 17.4801 24.5771 16.9454 24.9526C16.4106 25.3295 15.8019 25.6068 15.1178 25.7874C14.4294 25.9681 13.7198 26.0591 13.0086 26.0577H5.19922V9.94531H12.7811ZM12.3302 16.4662C12.9617 16.4662 13.4808 16.3154 13.8876 16.0154C14.2943 15.7138 14.4977 15.226 14.4963 14.549C14.4963 14.1736 14.428 13.865 14.2929 13.6246C14.1578 13.3842 13.9772 13.1951 13.751 13.06C13.5249 12.9249 13.2661 12.831 12.9731 12.7784C12.6716 12.7258 12.3658 12.6987 12.0586 12.7002H8.7434V16.469L12.3302 16.4662ZM12.5336 23.3028C12.8678 23.3042 13.2006 23.2701 13.5263 23.2018C13.8421 23.1336 14.1208 23.0212 14.3612 22.8634C14.6015 22.7055 14.7935 22.4907 14.9372 22.2205C15.0794 21.9503 15.1519 21.6033 15.1519 21.1823C15.1519 20.356 14.9187 19.7643 14.4522 19.4116C13.9857 19.0575 13.3685 18.8811 12.6019 18.8811H8.7434V23.3042L12.5336 23.3028ZM23.1519 22.9643C23.6326 23.4308 24.3253 23.6641 25.2284 23.6641C25.8755 23.6641 26.4316 23.5019 26.8981 23.1791C27.3645 22.8562 27.6504 22.5135 27.7557 22.1522H30.5759C30.1251 23.5517 29.4325 24.5515 28.4995 25.1531C27.5665 25.7547 26.4387 26.0562 25.1146 26.0562C24.1973 26.0562 23.3695 25.9098 22.6328 25.6168C21.8961 25.3238 21.2718 24.9057 20.7598 24.3638C20.2478 23.8219 19.8524 23.1762 19.575 22.4239C19.2977 21.6715 19.1583 20.8438 19.1583 19.9421C19.1583 19.0703 19.3006 18.2582 19.5864 17.5058C19.8723 16.7535 20.279 16.1035 20.8053 15.5546C21.3315 15.0056 21.9601 14.5732 22.6897 14.2575C23.4193 13.9418 24.2286 13.7839 25.116 13.7839C26.1087 13.7839 26.9734 13.9759 27.7116 14.3599C28.4483 14.7439 29.0542 15.2587 29.5278 15.9058C30.0014 16.553 30.3441 17.2897 30.5546 18.1174C30.7651 18.9451 30.8405 19.8098 30.7807 20.713H22.364C22.4081 21.7469 22.6712 22.4993 23.1519 22.9643ZM26.7743 16.8274C26.3903 16.4065 25.8072 16.196 25.025 16.196C24.513 16.196 24.0878 16.2827 23.7507 16.4548C23.4122 16.6283 23.142 16.8417 22.9386 17.0977C22.7352 17.3537 22.593 17.6239 22.5105 17.9098C22.428 18.1956 22.3782 18.4516 22.364 18.6763H27.5765C27.4243 17.8657 27.1569 17.2484 26.7743 16.8274ZM21.815 10.7631H28.3274V12.5693H21.815V10.7631Z" fill="white"/>
</g>
</svg>
