<svg width="40" height="40" viewBox="0 0 74 75" fill="none" xmlns="http://www.w3.org/2000/svg">
<g id="ClickUp Logomark">
<g id="ClickUp Logomark_2" filter="url(#filter0_d_195_5123)">
<path id="Element" d="M46.2449 13.2227H27.756C23.0432 13.2227 19.2227 17.0432 19.2227 21.756V40.2449C19.2227 44.9577 23.0432 48.7782 27.756 48.7782H46.2449C50.9577 48.7782 54.7782 44.9577 54.7782 40.2449V21.756C54.7782 17.0432 50.9577 13.2227 46.2449 13.2227Z" fill="white"/>
<path id="Element_2" fill-rule="evenodd" clip-rule="evenodd" d="M26.5859 37.6016L30.4312 34.6562C32.4732 37.3223 34.6417 38.5508 37.058 38.5508C39.4611 38.5508 41.5699 37.3362 43.5204 34.6915L47.4187 37.5663C44.6064 41.3796 41.1077 43.3943 37.058 43.3943C33.0218 43.3943 29.4906 41.3938 26.5859 37.6016Z" fill="url(#paint0_linear_195_5123)"/>
<path id="Element_3" fill-rule="evenodd" clip-rule="evenodd" d="M37.0428 24.8039L30.1989 30.7013L27.0371 27.032L37.0564 18.3984L46.9978 27.0387L43.8206 30.6945L37.0428 24.8039Z" fill="url(#paint1_linear_195_5123)"/>
</g>
</g>
<defs>
<filter id="filter0_d_195_5123" x="0.0226574" y="0.422657" width="73.9557" height="73.9547" filterUnits="userSpaceOnUse" color-interpolation-filters="sRGB">
<feFlood flood-opacity="0" result="BackgroundImageFix"/>
<feColorMatrix in="SourceAlpha" type="matrix" values="0 0 0 0 0 0 0 0 0 0 0 0 0 0 0 0 0 0 127 0" result="hardAlpha"/>
<feOffset dy="6.4"/>
<feGaussianBlur stdDeviation="9.6"/>
<feColorMatrix type="matrix" values="0 0 0 0 0.0627451 0 0 0 0 0.117647 0 0 0 0 0.211765 0 0 0 0.1 0"/>
<feBlend mode="normal" in2="BackgroundImageFix" result="effect1_dropShadow_195_5123"/>
<feBlend mode="normal" in="SourceGraphic" in2="effect1_dropShadow_195_5123" result="shape"/>
</filter>
<linearGradient id="paint0_linear_195_5123" x1="26.5859" y1="40.5988" x2="47.4187" y2="40.5988" gradientUnits="userSpaceOnUse">
<stop stop-color="#8930FD"/>
<stop offset="1" stop-color="#49CCF9"/>
</linearGradient>
<linearGradient id="paint1_linear_195_5123" x1="27.0371" y1="26.7651" x2="46.9978" y2="26.7651" gradientUnits="userSpaceOnUse">
<stop stop-color="#FF02F0"/>
<stop offset="1" stop-color="#FFC800"/>
</linearGradient>
</defs>
</svg>
