<svg width="40" height="40" viewBox="0 0 40 40" fill="none" xmlns="http://www.w3.org/2000/svg">
<g id="Dribbble Logomark">
<g id="Dribbble Logomark_2">
<path d="M20.0006 37.0673C29.4263 37.0673 37.0673 29.4263 37.0673 20.0006C37.0673 10.575 29.4263 2.93398 20.0006 2.93398C10.575 2.93398 2.93398 10.575 2.93398 20.0006C2.93398 29.4263 10.575 37.0673 20.0006 37.0673Z" fill="#EA4C89"/>
<path fill-rule="evenodd" clip-rule="evenodd" d="M20.0004 2.22266C10.186 2.22266 2.22266 10.186 2.22266 20.0004C2.22266 29.8148 10.186 37.7782 20.0004 37.7782C29.7956 37.7782 37.7782 29.8148 37.7782 20.0004C37.7782 10.186 29.7956 2.22266 20.0004 2.22266ZM31.743 10.4174C33.864 13.0011 35.1366 16.2984 35.1752 19.8655C34.6739 19.769 29.6606 18.7471 24.6088 19.3834C24.4931 19.1328 24.3967 18.8628 24.281 18.5929C23.9725 17.8602 23.6254 17.1082 23.2783 16.3947C28.8701 14.1195 31.4152 10.8416 31.743 10.4174ZM20.0004 4.84497C23.8568 4.84497 27.3854 6.2911 30.0655 8.66276C29.7956 9.0484 27.501 12.1142 22.1022 14.1388C19.6148 9.569 16.8575 5.82835 16.4333 5.24989C17.5709 4.97995 18.7664 4.84497 20.0004 4.84497ZM13.5411 6.27183C13.946 6.81171 16.6454 10.5717 19.1713 15.045C12.0756 16.9346 5.80907 16.8961 5.1342 16.8961C6.11755 12.1913 9.29907 8.27713 13.5411 6.27183ZM4.80641 20.0197C4.80641 19.8655 4.80641 19.7112 4.80641 19.557C5.46199 19.5762 12.8276 19.6726 20.4053 17.3974C20.8488 18.2458 21.2537 19.1135 21.6394 19.9812C21.4466 20.039 21.2345 20.0969 21.0416 20.1547C13.2133 22.6806 9.0484 29.5835 8.70134 30.1619C6.2911 27.4818 4.80641 23.9146 4.80641 20.0197ZM20.0004 35.1945C16.4912 35.1945 13.2518 33.999 10.6873 31.9937C10.9573 31.4345 14.0424 25.4957 22.6035 22.5071C22.642 22.4878 22.6613 22.4878 22.6999 22.4685C24.8402 28.0024 25.7078 32.6493 25.9392 33.9797C24.1075 34.7703 22.1022 35.1945 20.0004 35.1945ZM28.4651 32.5914C28.3109 31.6659 27.5011 27.2311 25.515 21.7744C30.2776 21.0224 34.4425 22.2564 34.9631 22.4299C34.3075 26.6526 31.878 30.2969 28.4651 32.5914Z" fill="#C32361"/>
</g>
</g>
</svg>
