<svg width="40" height="40" viewBox="0 0 40 40" fill="none" xmlns="http://www.w3.org/2000/svg">
<g id="Shopify Logomark">
<g id="Shopify">
<path d="M31.8319 9.05013C31.8033 8.87877 31.6605 8.76454 31.5177 8.76454C31.3749 8.76454 28.8618 8.70742 28.8618 8.70742C28.8618 8.70742 26.7484 6.6512 26.5485 6.45129C26.3486 6.25138 25.9202 6.30849 25.7774 6.36561C25.7774 6.36561 25.3776 6.47984 24.7208 6.67976C24.6065 6.30849 24.4352 5.88011 24.2067 5.42317C23.4642 3.99524 22.3504 3.22415 21.0367 3.22415C20.951 3.22415 20.8653 3.22415 20.7511 3.25271C20.7225 3.1956 20.6654 3.16704 20.6369 3.10992C20.0657 2.48163 19.3232 2.19604 18.4378 2.2246C16.7243 2.28172 15.0108 3.50974 13.64 5.70876C12.669 7.25093 11.9265 9.19292 11.698 10.7065C9.72745 11.3063 8.35664 11.7346 8.32808 11.7632C7.32852 12.0773 7.29997 12.1059 7.18573 13.0483C7.10005 13.7623 4.47266 33.8962 4.47266 33.8962L26.2915 37.6659L35.7444 35.3241C35.7159 35.2956 31.8604 9.22148 31.8319 9.05013ZM23.6355 7.02246C23.1215 7.16525 22.5503 7.36516 21.9506 7.53652C21.9506 6.67976 21.8363 5.45173 21.4365 4.42362C22.7217 4.68065 23.3499 6.13714 23.6355 7.02246ZM20.7797 7.90778C19.6373 8.25048 18.3807 8.6503 17.1242 9.02157C17.4669 7.67931 18.1523 6.33705 18.9519 5.45173C19.2661 5.13759 19.6944 4.76632 20.1799 4.53785C20.694 5.53741 20.8082 6.93678 20.7797 7.90778ZM18.4664 3.36695C18.8662 3.36695 19.2089 3.45262 19.4945 3.62398C19.0376 3.881 18.5806 4.22371 18.1523 4.68065C17.067 5.85155 16.2388 7.67931 15.8961 9.42139C14.868 9.73553 13.8399 10.0497 12.8975 10.3353C13.4972 7.59363 15.8105 3.45262 18.4664 3.36695Z" fill="#95BF47"/>
<path d="M31.5177 8.76454C31.3749 8.76454 28.8618 8.70742 28.8618 8.70742C28.8618 8.70742 26.7484 6.6512 26.5485 6.45129C26.4628 6.36561 26.3774 6.33706 26.2631 6.3085V37.6374L35.7161 35.2956C35.7161 35.2956 31.8606 9.22149 31.8321 9.02158C31.8035 8.87879 31.6605 8.76454 31.5177 8.76454Z" fill="#5E8E3E"/>
<path d="M21.0084 13.6195L19.9231 17.732C19.9231 17.732 18.6951 17.1608 17.2386 17.275C15.0967 17.4178 15.0967 18.7601 15.0967 19.1028C15.2109 20.9305 20.0374 21.3304 20.3229 25.6427C20.5229 29.0412 18.5237 31.3545 15.6393 31.5258C12.1552 31.7543 10.2417 29.6981 10.2417 29.6981L10.9843 26.5566C10.9843 26.5566 12.8977 28.0131 14.4399 27.8989C15.4394 27.8417 15.8107 27.0135 15.7821 26.4424C15.6393 24.0434 11.6982 24.1862 11.4412 20.2451C11.2413 16.9323 13.4117 13.5624 18.2096 13.2768C20.0659 13.134 21.0084 13.6195 21.0084 13.6195Z" fill="white"/>
</g>
</g>
</svg>
