<svg width="40" height="40" viewBox="0 0 40 40" fill="none" xmlns="http://www.w3.org/2000/svg">
<g id="Webflow Logomark">
<g id="Webflow Logomark_2">
<path id="Element" d="M29.7782 2.22266C34.1965 2.22266 37.7782 5.80438 37.7782 10.2227V29.7782C37.7782 34.1965 34.1965 37.7782 29.7782 37.7782H10.2227C5.80438 37.7782 2.22266 34.1965 2.22266 29.7782V10.2227C2.22266 5.80438 5.80438 2.22266 10.2227 2.22266H29.7782Z" fill="#4353FF"/>
<path id="Element_2" d="M26.3022 17.1189C26.3022 17.1189 24.4977 22.7722 24.3644 23.2522C24.3111 22.7811 22.9955 12.6211 22.9955 12.6211C19.9199 12.6211 18.2844 14.8078 17.4133 17.1189C17.4133 17.1189 15.2177 22.79 15.0399 23.2611C15.0311 22.8166 14.7022 17.1722 14.7022 17.1722C14.5155 14.3366 11.9288 12.6211 9.83105 12.6211L12.3555 28.0078C15.5733 27.9989 17.3066 25.8211 18.2133 23.5011C18.2133 23.5011 20.1422 18.4967 20.2222 18.2744C20.2399 18.4878 21.6088 28.0078 21.6088 28.0078C24.8355 28.0078 26.5777 25.9722 27.5111 23.7411L32.0355 12.6211C28.8444 12.6211 27.1644 14.7989 26.3022 17.1189Z" fill="white"/>
</g>
</g>
</svg>
